<svg width="69" height="22" viewBox="0 0 69 22" fill="none" xmlns="http://www.w3.org/2000/svg">
<path d="M7.49226 16L4.57645 10.7076H3.75763V16H0.342537V1.98015H6.0743C7.17938 1.98015 8.11803 2.1732 8.89025 2.55932C9.67579 2.94543 10.2616 3.47799 10.6477 4.15702C11.0338 4.82273 11.2269 5.56832 11.2269 6.3938C11.2269 7.3258 10.9606 8.15794 10.428 8.89022C9.90879 9.6225 9.13657 10.1418 8.11137 10.448L11.3467 16H7.49226ZM3.75763 8.29108H5.87459C6.50035 8.29108 6.96635 8.13797 7.27258 7.83174C7.59212 7.52551 7.75189 7.0928 7.75189 6.5336C7.75189 6.00104 7.59212 5.58164 7.27258 5.27541C6.96635 4.96919 6.50035 4.81607 5.87459 4.81607H3.75763V8.29108ZM18.4434 16.1598C17.3516 16.1598 16.3664 15.9268 15.4876 15.4608C14.6222 14.9948 13.9365 14.3291 13.4306 13.4636C12.938 12.5982 12.6917 11.5863 12.6917 10.428C12.6917 9.28299 12.9446 8.27776 13.4506 7.41234C13.9565 6.5336 14.6489 5.86124 15.5276 5.39524C16.4063 4.92924 17.3916 4.69624 18.4833 4.69624C19.5751 4.69624 20.5604 4.92924 21.4391 5.39524C22.3178 5.86124 23.0102 6.5336 23.5161 7.41234C24.022 8.27776 24.275 9.28299 24.275 10.428C24.275 11.573 24.0154 12.5849 23.4961 13.4636C22.9902 14.3291 22.2912 14.9948 21.3992 15.4608C20.5204 15.9268 19.5352 16.1598 18.4434 16.1598ZM18.4434 13.204C19.0958 13.204 19.6483 12.9644 20.101 12.4851C20.567 12.0057 20.8 11.3201 20.8 10.428C20.8 9.53596 20.5737 8.85027 20.121 8.37096C19.6816 7.89165 19.1357 7.652 18.4833 7.652C17.8176 7.652 17.2651 7.89165 16.8257 8.37096C16.3864 8.83696 16.1667 9.52264 16.1667 10.428C16.1667 11.3201 16.3797 12.0057 16.8058 12.4851C17.2451 12.9644 17.791 13.204 18.4434 13.204ZM29.5019 1.22124V16H26.0868V1.22124H29.5019ZM35.3919 1.22124V16H31.9768V1.22124H35.3919ZM39.5843 3.69768C38.9851 3.69768 38.4925 3.52459 38.1064 3.17843C37.7336 2.81894 37.5472 2.37957 37.5472 1.86032C37.5472 1.32775 37.7336 0.888384 38.1064 0.542214C38.4925 0.182731 38.9851 0.00298896 39.5843 0.00298896C40.1701 0.00298896 40.6494 0.182731 41.0222 0.542214C41.4083 0.888384 41.6014 1.32775 41.6014 1.86032C41.6014 2.37957 41.4083 2.81894 41.0222 3.17843C40.6494 3.52459 40.1701 3.69768 39.5843 3.69768ZM41.2818 4.85602V16H37.8667V4.85602H41.2818ZM50.5469 4.73619C51.8517 4.73619 52.8902 5.16224 53.6625 6.01435C54.448 6.85315 54.8408 8.01148 54.8408 9.48936V16H51.4457V9.9487C51.4457 9.2031 51.2526 8.62393 50.8665 8.21119C50.4804 7.79845 49.9611 7.59208 49.3087 7.59208C48.6563 7.59208 48.1371 7.79845 47.751 8.21119C47.3649 8.62393 47.1718 9.2031 47.1718 9.9487V16H43.7567V4.85602H47.1718V6.33389C47.518 5.84127 47.984 5.45515 48.5698 5.17556C49.1556 4.88264 49.8147 4.73619 50.5469 4.73619ZM61.4478 4.69624C62.2334 4.69624 62.9191 4.85601 63.5049 5.17556C64.104 5.4951 64.5634 5.91449 64.8829 6.43375V4.85602H68.298V15.98C68.298 17.0052 68.0916 17.9306 67.6789 18.756C67.2795 19.5948 66.6604 20.2605 65.8216 20.7532C64.9961 21.2458 63.9642 21.4921 62.726 21.4921C61.075 21.4921 59.737 21.0993 58.7118 20.3138C57.6866 19.5416 57.1008 18.4898 56.9543 17.1583H60.3295C60.436 17.5844 60.6889 17.9172 61.0884 18.1569C61.4878 18.4099 61.9804 18.5364 62.5662 18.5364C63.2719 18.5364 63.8311 18.33 64.2438 17.9172C64.6699 17.5178 64.8829 16.8721 64.8829 15.98V14.4023C64.5501 14.9215 64.0907 15.3476 63.5049 15.6805C62.9191 16 62.2334 16.1598 61.4478 16.1598C60.5292 16.1598 59.697 15.9268 58.9514 15.4608C58.2058 14.9815 57.6134 14.3091 57.174 13.4437C56.7479 12.5649 56.5349 11.5531 56.5349 10.408C56.5349 9.26302 56.7479 8.25779 57.174 7.39237C57.6134 6.52695 58.2058 5.86124 58.9514 5.39524C59.697 4.92924 60.5292 4.69624 61.4478 4.69624ZM64.8829 10.428C64.8829 9.5759 64.6433 8.90353 64.1639 8.41091C63.6979 7.91828 63.1254 7.67197 62.4464 7.67197C61.7674 7.67197 61.1882 7.91828 60.7089 8.41091C60.2429 8.89022 60.0099 9.55593 60.0099 10.408C60.0099 11.2601 60.2429 11.9392 60.7089 12.4451C61.1882 12.9377 61.7674 13.184 62.4464 13.184C63.1254 13.184 63.6979 12.9377 64.1639 12.4451C64.6433 11.9525 64.8829 11.2801 64.8829 10.428Z" fill="#4A494F"/>
</svg>
