<?xml version="1.0" standalone="no"?>
<!DOCTYPE svg PUBLIC "-//W3C//DTD SVG 20010904//EN"
 "http://www.w3.org/TR/2001/REC-SVG-20010904/DTD/svg10.dtd">
<svg version="1.0" xmlns="http://www.w3.org/2000/svg"
 width="512.000000pt" height="512.000000pt" viewBox="0 0 512.000000 512.000000"
 preserveAspectRatio="xMidYMid meet">

<g transform="translate(0.000000,512.000000) scale(0.100000,-0.100000)"
fill="#000000" stroke="none">
<path d="M3836 5105 c-95 -20 -194 -59 -268 -107 -77 -49 -415 -380 -434 -425
-18 -41 -18 -105 0 -146 18 -41 1261 -1282 1299 -1296 55 -21 120 -13 168 18
46 31 287 272 351 351 54 68 114 185 140 275 32 114 32 298 0 409 -30 103 -81
205 -142 280 -66 83 -464 475 -520 513 -71 48 -162 91 -242 113 -96 27 -260
34 -352 15z m261 -360 c28 -8 73 -27 99 -42 64 -35 471 -441 506 -504 41 -76
58 -138 58 -213 0 -135 -36 -211 -163 -342 l-92 -95 -478 479 -478 478 96 92
c131 125 200 159 331 161 39 1 93 -6 121 -14z"/>
<path d="M2700 4152 c-71 -47 -2476 -2460 -2494 -2502 -8 -20 -58 -361 -112
-758 -108 -804 -106 -769 -39 -837 67 -66 33 -68 831 40 395 53 733 100 749
106 20 6 452 431 1331 1311 716 717 1307 1314 1314 1327 17 34 15 112 -4 149
-38 74 -108 110 -193 98 l-48 -7 -1272 -1271 -1271 -1271 -548 -74 c-301 -40
-549 -72 -551 -69 -2 2 29 250 70 551 l73 546 1208 1208 c1119 1119 1208 1210
1221 1255 35 116 -35 217 -158 224 -55 3 -67 0 -107 -26z"/>
<path d="M3325 3561 c-28 -13 -417 -397 -1267 -1247 -1121 -1123 -1227 -1233
-1238 -1273 -29 -109 36 -209 147 -227 90 -14 26 -73 1346 1245 835 834 1234
1239 1247 1267 25 50 25 97 1 149 -22 48 -44 69 -94 90 -48 20 -93 19 -142 -4z"/>
</g>
</svg>
