<?xml version="1.0" standalone="no"?>
<!DOCTYPE svg PUBLIC "-//W3C//DTD SVG 20010904//EN"
 "http://www.w3.org/TR/2001/REC-SVG-20010904/DTD/svg10.dtd">
<svg version="1.0" xmlns="http://www.w3.org/2000/svg"
 width="512.000000pt" height="512.000000pt" viewBox="0 0 512.000000 512.000000"
 preserveAspectRatio="xMidYMid meet">

<g transform="translate(0.000000,512.000000) scale(0.100000,-0.100000)"
fill="#000000" stroke="none">
<path d="M2510 4901 c-41 -13 -84 -38 -107 -63 -45 -47 -53 -87 -53 -251 0
-142 2 -157 23 -198 34 -64 93 -102 166 -107 99 -7 171 30 211 109 17 33 20
59 20 199 0 140 -3 166 -20 199 -44 87 -153 138 -240 112z"/>
<path d="M962 4259 c-104 -52 -145 -188 -89 -294 21 -40 133 -148 177 -171 86
-44 205 -11 264 74 40 57 48 149 18 208 -24 46 -144 165 -189 188 -46 23 -129
20 -181 -5z"/>
<path d="M3975 4261 c-51 -24 -170 -145 -190 -193 -39 -96 0 -211 90 -263 56
-32 98 -39 158 -24 45 10 63 23 138 98 78 77 88 91 99 141 20 91 -14 176 -91
227 -55 36 -145 43 -204 14z"/>
<path d="M2439 3839 c-557 -50 -1025 -476 -1136 -1036 -24 -120 -24 -366 0
-486 104 -523 516 -929 1036 -1023 114 -20 330 -20 446 1 263 47 524 188 704
381 150 160 255 353 314 574 29 110 31 124 31 310 0 186 -2 200 -31 310 -41
152 -96 278 -176 398 -266 399 -712 613 -1188 571z"/>
<path d="M328 2750 c-157 -83 -148 -317 14 -385 28 -11 75 -15 196 -15 147 0
162 2 203 23 24 13 58 43 74 66 27 39 30 50 30 121 0 71 -3 82 -30 121 -16 23
-50 53 -74 66 -41 21 -55 23 -210 23 -144 -1 -171 -3 -203 -20z"/>
<path d="M4382 2749 c-130 -65 -150 -248 -39 -346 55 -48 92 -55 268 -51 151
3 157 4 198 31 106 70 129 214 50 310 -56 69 -86 77 -271 77 -146 0 -167 -2
-206 -21z"/>
<path d="M1060 1334 c-45 -19 -166 -138 -192 -189 -66 -128 25 -289 171 -303
75 -7 117 13 200 92 84 81 111 129 111 201 0 150 -156 257 -290 199z"/>
<path d="M3918 1336 c-94 -34 -140 -95 -146 -191 -5 -79 9 -109 97 -198 88
-91 126 -110 207 -105 116 7 196 91 196 207 0 73 -17 108 -96 189 -93 97 -176
129 -258 98z"/>
<path d="M2460 818 c-25 -14 -58 -44 -75 -67 -30 -42 -30 -44 -33 -199 -4
-171 3 -213 45 -262 79 -95 236 -99 320 -8 45 47 53 87 53 251 0 142 -2 157
-23 198 -36 68 -93 103 -175 107 -56 3 -74 0 -112 -20z"/>
</g>
</svg>
